<?xml version="1.0" standalone="no"?>
<!DOCTYPE svg PUBLIC "-//W3C//DTD SVG 20010904//EN"
 "http://www.w3.org/TR/2001/REC-SVG-20010904/DTD/svg10.dtd">
<svg version="1.0" xmlns="http://www.w3.org/2000/svg"
 width="681.000000pt" height="681.000000pt" viewBox="0 0 681.000000 681.000000"
 preserveAspectRatio="xMidYMid meet">
<metadata>
Created by potrace 1.14, written by Peter Selinger 2001-2017
</metadata>
<g transform="translate(0.000000,681.000000) scale(0.100000,-0.100000)"
fill="#000000" stroke="none">
<path d="M2185 5509 c88 -75 298 -291 376 -389 288 -360 526 -820 644 -1245
14 -49 29 -103 34 -120 6 -16 12 -41 15 -55 2 -14 11 -56 20 -95 17 -82 43
-231 51 -295 3 -25 7 -63 10 -85 3 -22 8 -94 11 -160 12 -217 9 -224 -30 -70
-82 313 -227 573 -411 735 -23 20 -19 12 17 -40 108 -154 185 -367 214 -590 3
-25 7 -56 10 -70 5 -34 8 -259 3 -264 -2 -2 -66 -7 -142 -10 -75 -4 -147 -9
-160 -11 -12 -2 -51 -6 -87 -10 -65 -6 -101 -10 -175 -19 -22 -3 -62 -8 -90
-12 -27 -3 -57 -7 -65 -9 -14 -3 -71 -11 -135 -21 -16 -3 -37 -7 -45 -9 -8 -2
-32 -6 -53 -10 -22 -3 -69 -12 -105 -20 -37 -8 -78 -17 -92 -19 -205 -36 -730
-194 -1029 -310 -266 -104 -803 -354 -761 -356 8 0 49 6 90 14 41 8 97 17 124
21 27 3 52 8 55 10 3 1 35 6 71 10 36 4 67 8 70 10 5 3 104 18 202 30 18 2 49
6 68 9 19 3 55 8 80 11 25 4 56 8 70 10 14 2 50 7 80 10 30 3 66 8 80 10 14 2
59 6 100 10 41 4 86 8 100 10 14 2 54 7 90 10 36 3 83 8 105 10 22 2 89 7 150
10 60 4 121 9 135 10 15 2 50 -11 90 -35 104 -61 593 -343 620 -357 14 -8 39
-23 57 -33 17 -10 136 -79 265 -153 128 -74 278 -160 333 -192 55 -32 115 -66
133 -77 l33 -18 272 156 c150 87 297 172 327 190 70 41 880 509 923 532 18 10
44 26 59 35 23 16 35 17 85 8 32 -5 85 -13 118 -17 33 -4 62 -8 65 -9 3 0 32
-5 65 -9 32 -4 66 -9 75 -11 8 -1 65 -10 125 -19 61 -10 121 -19 135 -22 14
-2 106 -18 205 -34 99 -17 203 -35 230 -40 204 -40 466 -90 495 -94 23 -4 -22
23 -130 77 -149 74 -212 104 -375 177 -320 144 -871 321 -1255 405 -107 23
-264 52 -385 71 -16 2 -41 6 -55 9 -14 2 -45 7 -70 10 -25 4 -56 8 -70 10 -14
2 -50 6 -80 10 -30 3 -68 7 -85 9 -16 2 -73 7 -125 11 -52 4 -97 9 -100 12
-15 14 -2 559 15 648 3 11 7 36 9 55 25 175 82 361 157 511 39 79 95 169 113
181 6 4 7 8 3 8 -13 0 -147 -112 -187 -156 -107 -120 -170 -205 -250 -343
l-42 -73 -13 28 c-7 16 -31 79 -55 139 -35 92 -188 414 -220 465 -5 8 -45 74
-90 147 -290 475 -711 913 -1099 1144 l-66 40 50 -42z m910 -3124 c99 -4 205
-8 235 -10 261 -13 319 -17 350 -20 19 -2 78 -7 130 -10 52 -3 113 -8 135 -10
22 -2 76 -6 120 -10 44 -3 94 -8 110 -10 17 -2 68 -7 113 -11 46 -3 96 -9 110
-13 l27 -8 -35 -18 c-19 -10 -161 -91 -315 -180 -154 -89 -300 -173 -325 -187
-25 -14 -85 -49 -135 -78 -49 -29 -110 -64 -135 -78 -25 -13 -50 -29 -56 -33
-7 -6 -82 32 -200 100 -104 60 -279 161 -389 224 -110 64 -201 120 -203 126
-2 6 2 9 10 7 7 -3 58 -7 113 -11 98 -6 147 -10 235 -21 80 -9 185 -24 200
-29 8 -2 31 -6 50 -9 136 -21 388 -92 475 -133 l30 -14 -25 21 c-32 28 -170
110 -270 160 -173 87 -385 162 -576 205 -59 13 -224 44 -257 48 -128 16 63 17
478 2z"/>
</g>
</svg>
